<svg width="12" height="11" viewBox="0 0 12 11" fill="none" xmlns="http://www.w3.org/2000/svg">
<path fill-rule="evenodd" clip-rule="evenodd" d="M0.140763 10.9717H2.57307V3.66461H0.140763V10.9717ZM10.5577 4.33384C10.0463 3.77538 9.37061 3.49661 8.53061 3.49661C8.22046 3.49661 7.93984 3.53446 7.68599 3.61015C7.45391 3.67609 7.23629 3.78506 7.04446 3.93138C6.86999 4.06984 6.73061 4.19723 6.62815 4.31446C6.5303 4.42615 6.4343 4.55723 6.34107 4.70492V3.66461H3.9143L3.92169 4.01907C3.9263 4.25446 3.92907 4.98184 3.92907 6.20123C3.92907 7.41969 3.92353 9.01015 3.9143 10.9708H6.34015V6.89446C6.34015 6.64431 6.36692 6.44492 6.42046 6.29815C6.52384 6.04707 6.67984 5.83661 6.88938 5.66769C7.09799 5.49784 7.35738 5.41292 7.66661 5.41292C8.08938 5.41292 8.40046 5.55877 8.59892 5.85138C8.7983 6.144 8.89799 6.54831 8.89799 7.06431V10.9717H11.3238V6.78461C11.3238 5.70831 11.0681 4.89046 10.5577 4.33384ZM1.37215 0.149536C0.964148 0.149536 0.633686 0.26769 0.378917 0.506767C0.128887 0.739317 -0.00899163 1.06821 0.000455509 1.40954C0.000455509 1.76861 0.123225 2.06861 0.369686 2.30954C0.614302 2.54954 0.939225 2.66954 1.34261 2.66954H1.35646C1.76999 2.66954 2.1023 2.54954 2.35615 2.30954C2.60907 2.06861 2.73276 1.76861 2.72815 1.40954C2.73285 1.06993 2.59687 0.743514 2.35246 0.50769C2.10692 0.26769 1.78015 0.149536 1.37215 0.149536Z" fill="white"/>
</svg>
